{
  "asset": {
    "generator": "Khronos glTF Blender I/O v1.8.19",
    "version": "2.0"
  },
  "scene": 0,
  "scenes": [
    {
      "name": "Scene_Cube_Wood_Roughness",
      "nodes": [
        0
      ]
    }
  ],
  "nodes": [
    {
      "mesh": 0,
      "name": "Cube"
    }
  ],
  "materials": [
    {
      "doubleSided": true,
      "name": "Material",
      "pbrMetallicRoughness": {}
    },
    {
      "doubleSided": true,
      "name": "Material.001",
      "pbrMetallicRoughness": {}
    }
  ],
  "meshes": [
    {
      "extras": {
        "targetNames": [
          "ANCHO",
          "ALTO",
          "FONDO"
        ]
      },
      "name": "Cube",
      "primitives": [
        {
          "attributes": {
            "POSITION": 0,
            "NORMAL": 1,
            "TEXCOORD_0": 2
          },
          "indices": 3,
          "material": 0,
          "targets": [
            {
              "POSITION": 4,
              "NORMAL": 5
            },
            {
              "POSITION": 6,
              "NORMAL": 7
            },
            {
              "POSITION": 8,
              "NORMAL": 9
            }
          ]
        },
        {
          "attributes": {
            "POSITION": 10,
            "NORMAL": 11,
            "TEXCOORD_0": 12
          },
          "indices": 13,
          "material": 1,
          "targets": [
            {
              "POSITION": 14,
              "NORMAL": 15
            },
            {
              "POSITION": 16,
              "NORMAL": 17
            },
            {
              "POSITION": 18,
              "NORMAL": 19
            }
          ]
        }
      ],
      "weights": [
        0,
        0,
        0
      ]
    }
  ],
  "accessors": [
    {
      "bufferView": 0,
      "componentType": 5126,
      "count": 20,
      "max": [
        1,
        1,
        1
      ],
      "min": [
        -1,
        -1,
        -1
      ],
      "type": "VEC3"
    },
    {
      "bufferView": 1,
      "componentType": 5126,
      "count": 20,
      "type": "VEC3"
    },
    {
      "bufferView": 2,
      "componentType": 5126,
      "count": 20,
      "type": "VEC2"
    },
    {
      "bufferView": 3,
      "componentType": 5123,
      "count": 30,
      "type": "SCALAR"
    },
    {
      "bufferView": 4,
      "componentType": 5126,
      "count": 20,
      "max": [
        0,
        0,
        0
      ],
      "min": [
        0,
        0,
        -3.754152297973633
      ],
      "type": "VEC3"
    },
    {
      "bufferView": 5,
      "componentType": 5126,
      "count": 20,
      "type": "VEC3"
    },
    {
      "bufferView": 6,
      "componentType": 5126,
      "count": 20,
      "max": [
        0,
        2.7687149047851562,
        0
      ],
      "min": [
        0,
        0,
        0
      ],
      "type": "VEC3"
    },
    {
      "bufferView": 7,
      "componentType": 5126,
      "count": 20,
      "type": "VEC3"
    },
    {
      "bufferView": 8,
      "componentType": 5126,
      "count": 20,
      "max": [
        2.6314103603363037,
        0,
        0
      ],
      "min": [
        0,
        0,
        0
      ],
      "type": "VEC3"
    },
    {
      "bufferView": 9,
      "componentType": 5126,
      "count": 20,
      "type": "VEC3"
    },
    {
      "bufferView": 10,
      "componentType": 5126,
      "count": 4,
      "max": [
        1,
        1,
        1
      ],
      "min": [
        1,
        -1,
        -1
      ],
      "type": "VEC3"
    },
    {
      "bufferView": 11,
      "componentType": 5126,
      "count": 4,
      "type": "VEC3"
    },
    {
      "bufferView": 12,
      "componentType": 5126,
      "count": 4,
      "type": "VEC2"
    },
    {
      "bufferView": 13,
      "componentType": 5123,
      "count": 6,
      "type": "SCALAR"
    },
    {
      "bufferView": 14,
      "componentType": 5126,
      "count": 4,
      "max": [
        0,
        0,
        0
      ],
      "min": [
        0,
        0,
        -3.754152297973633
      ],
      "type": "VEC3"
    },
    {
      "bufferView": 15,
      "componentType": 5126,
      "count": 4,
      "type": "VEC3"
    },
    {
      "bufferView": 16,
      "componentType": 5126,
      "count": 4,
      "max": [
        0,
        2.7687149047851562,
        0
      ],
      "min": [
        0,
        0,
        0
      ],
      "type": "VEC3"
    },
    {
      "bufferView": 17,
      "componentType": 5126,
      "count": 4,
      "type": "VEC3"
    },
    {
      "bufferView": 18,
      "componentType": 5126,
      "count": 4,
      "max": [
        2.6314103603363037,
        0,
        0
      ],
      "min": [
        2.6314103603363037,
        0,
        0
      ],
      "type": "VEC3"
    },
    {
      "bufferView": 19,
      "componentType": 5126,
      "count": 4,
      "type": "VEC3"
    }
  ],
  "bufferViews": [
    {
      "buffer": 0,
      "byteLength": 240,
      "byteOffset": 0
    },
    {
      "buffer": 0,
      "byteLength": 240,
      "byteOffset": 240
    },
    {
      "buffer": 0,
      "byteLength": 160,
      "byteOffset": 480
    },
    {
      "buffer": 0,
      "byteLength": 60,
      "byteOffset": 640
    },
    {
      "buffer": 0,
      "byteLength": 240,
      "byteOffset": 700
    },
    {
      "buffer": 0,
      "byteLength": 240,
      "byteOffset": 940
    },
    {
      "buffer": 0,
      "byteLength": 240,
      "byteOffset": 1180
    },
    {
      "buffer": 0,
      "byteLength": 240,
      "byteOffset": 1420
    },
    {
      "buffer": 0,
      "byteLength": 240,
      "byteOffset": 1660
    },
    {
      "buffer": 0,
      "byteLength": 240,
      "byteOffset": 1900
    },
    {
      "buffer": 0,
      "byteLength": 48,
      "byteOffset": 2140
    },
    {
      "buffer": 0,
      "byteLength": 48,
      "byteOffset": 2188
    },
    {
      "buffer": 0,
      "byteLength": 32,
      "byteOffset": 2236
    },
    {
      "buffer": 0,
      "byteLength": 12,
      "byteOffset": 2268
    },
    {
      "buffer": 0,
      "byteLength": 48,
      "byteOffset": 2280
    },
    {
      "buffer": 0,
      "byteLength": 48,
      "byteOffset": 2328
    },
    {
      "buffer": 0,
      "byteLength": 48,
      "byteOffset": 2376
    },
    {
      "buffer": 0,
      "byteLength": 48,
      "byteOffset": 2424
    },
    {
      "buffer": 0,
      "byteLength": 48,
      "byteOffset": 2472
    },
    {
      "buffer": 0,
      "byteLength": 48,
      "byteOffset": 2520
    }
  ],
  "buffers": [
    {
      "uri": "Fussion_Chrome_800_2_cajones_data.bin",
      "byteLength": 2568
    }
  ]
}